HIERARCHY
ROOT Hips
{
  OFFSET 0 0 0
  CHANNELS 6 Xposition Yposition Zposition Zrotation Yrotation Xrotation
  JOINT LeftThigh
  {
    OFFSET 8.409438 0 -5.917753
    CHANNELS 3 Zrotation Yrotation Xrotation
    JOINT LeftLeg
    {
      OFFSET 0 0 -42.358652
      CHANNELS 3 Zrotation Yrotation Xrotation
      JOINT LeftFoot
      {
        OFFSET 0 0 -39.357303
        CHANNELS 3 Zrotation Yrotation Xrotation
      }
    }
  }
  JOINT RightThigh
  {
    OFFSET -8.409438 0 -5.917753
    CHANNELS 3 Zrotation Yrotation Xrotation
    JOINT RightLeg
    {
      OFFSET 0 0 -42.358652
      CHANNELS 3 Zrotation Yrotation Xrotation
      JOINT RightFoot
      {
        OFFSET 0 0 -39.357303
        CHANNELS 3 Zrotation Yrotation Xrotation
      }
    }
  }
  JOINT SpineLow
  {
    OFFSET 0 0 4.719101
    CHANNELS 3 Zrotation Yrotation Xrotation
    JOINT SpineMid
    {
      OFFSET 0 0 12.899191
      CHANNELS 3 Zrotation Yrotation Xrotation
      JOINT Chest
      {
        OFFSET 0 0 12.899191
        CHANNELS 3 Zrotation Yrotation Xrotation
        JOINT LeftShoulder
        {
          OFFSET 7.550562 1.41573 9.438202
          CHANNELS 3 Zrotation Yrotation Xrotation
          JOINT LeftArm
          {
            OFFSET 9.155056 0 4.247191
            CHANNELS 3 Zrotation Yrotation Xrotation
            JOINT LeftForearm
            {
              OFFSET 0 0 25.771955
              CHANNELS 3 Zrotation Yrotation Xrotation
              JOINT LeftHand
              {
                OFFSET 0 0 25.197169
                CHANNELS 3 Zrotation Yrotation Xrotation
              }
            }
          }
        }
        JOINT RightShoulder
        {
          OFFSET -7.550562 1.41573 9.438202
          CHANNELS 3 Zrotation Yrotation Xrotation
          JOINT RightArm
          {
            OFFSET -9.155056 0 4.247191
            CHANNELS 3 Zrotation Yrotation Xrotation
            JOINT RightForearm
            {
              OFFSET 0 0 -25.771955
              CHANNELS 3 Zrotation Yrotation Xrotation
              JOINT RightHand
              {
                OFFSET 0 0 -25.197169
                CHANNELS 3 Zrotation Yrotation Xrotation
              }
            }
          }
        }
        JOINT Neck
        {
          OFFSET 0 0 15.101124
          CHANNELS 3 Zrotation Yrotation Xrotation
          JOINT Head
          {
            OFFSET 0 0 11.325843
            CHANNELS 3 Zrotation Yrotation Xrotation
            End Site
            {
              OFFSET 0 0 14.157303
            }
          }
        }
      }
    }
  }
}
MOTION
Frames: 17
Frame Time: 0.0
0.0  89.887642  0.0  -3.145937  44.900315  -94.046593  -10.883439  -13.062696  -9.849086  -14.181688  4.380151  24.139885  1.325474  0.354317  1.83971  -31.887702  11.258468  7.2702  -17.659688  6.050254  5.300515  1.408727  0.408431  0.151968  4.296021  -1.170585  -0.303189  11.765383  -3.13423  -1.034055  11.765382  -3.13423  -1.034055  -0.90827  14.094644  13.082086  142.511902  7.056108  170.108581  -33.009218  47.889913  86.176552  50.077856  -4.820865  30.229589  -0.772111  11.918496  -0.493154  -129.430983  64.940233  169.314251  -31.771923  9.668048  -114.138764  79.234777  16.87876  33.586482  -34.886973  4.369546  5.747332  -26.196223  2.960406  4.576492  
0.0  89.887642  0.0  -3.23748  44.535945  -94.134309  -10.174031  -13.20928  -9.746076  -14.138174  4.299937  24.019228  1.168439  0.306021  1.8407  -31.849458  11.190452  7.05317  -17.514261  6.122427  5.551688  1.45646  0.435738  0.189578  4.273683  -1.192921  -0.262546  11.702963  -3.202647  -0.926215  11.702963  -3.202647  -0.926215  -0.825396  14.261935  12.898379  142.647426  7.588005  170.507413  -32.621519  46.884967  86.649202  52.153657  -5.021402  29.713765  -0.919289  11.947445  -0.482392  -129.122812  65.288839  169.799676  -31.620452  9.435762  -113.971074  79.137707  16.916719  33.337037  -34.723034  4.269596  5.606969  -26.07184  2.89459  4.463865  
0.0  89.887642  0.0  -3.342993  44.195428  -94.219692  -9.734458  -13.231717  -9.714316  -14.239036  4.154496  23.812053  1.107005  0.305598  1.921266  -31.979625  11.146776  6.761303  -17.558912  6.208106  5.817308  1.701653  0.435454  0.25613  4.240557  -1.218136  -0.234815  11.611651  -3.276725  -0.853494  11.611651  -3.276725  -0.853495  -0.469677  14.324243  12.759513  142.53056  8.12322  170.968174  -32.143652  45.630216  87.168073  54.476041  -5.124125  29.059104  -0.72865  11.801025  -0.256862  -129.51515  65.576506  169.969332  -31.338141  9.171068  -113.758752  79.003793  16.948821  33.035779  -34.516159  4.196812  5.546625  -25.916016  2.844986  4.412702  
0.0  89.887642  0.0  -3.47866  43.749893  -94.341793  -9.049168  -13.412171  -9.604756  -14.293988  4.089202  23.696255  1.008256  0.286887  1.93224  -32.042498  11.113242  6.442295  -17.268706  6.253043  6.234241  1.791968  0.462893  0.29843  4.211211  -1.261474  -0.22309  11.531855  -3.397254  -0.827696  11.531855  -3.397254  -0.827696  -0.314939  14.614352  12.662068  142.725801  8.77463  171.410485  -31.671184  44.148091  87.698681  56.918701  -4.985148  28.462853  -0.878418  11.85284  -0.037026  -129.50674  66.134813  170.240385  -31.114997  8.810574  -113.58827  78.791489  17.018594  32.708113  -34.290204  4.20029  5.505518  -25.746301  2.851846  4.380173  
0.0  89.887642  0.0  -3.610598  43.36353  -94.411722  -9.335978  -13.254914  -9.802483  -13.930781  3.77413  23.90041  1.20199  0.311375  2.110847  -32.370879  11.116986  5.942126  -17.123959  6.329713  6.733773  2.09336  0.46261  0.346872  4.154961  -1.293749  -0.2389  11.379583  -3.483289  -0.873521  11.379583  -3.48329  -0.873521  0.011496  14.765186  12.599668  142.884936  9.432573  171.882627  -30.98389  42.506158  88.436632  59.488762  -4.627199  27.976405  -0.651082  11.684457  0.394419  -130.173746  66.7357  170.183559  -30.865238  8.467507  -113.415695  78.531732  17.114061  32.235739  -33.881663  4.221279  5.634164  -25.441088  2.86395  4.474894  
0.0  89.887642  0.0  -3.78191  42.796283  -94.485092  -8.81084  -13.477547  -9.738206  -13.911383  3.69732  23.82171  1.174616  0.303039  2.13712  -32.42051  11.058822  5.428008  -16.715652  6.352594  7.367477  2.193435  0.487264  0.386266  4.133189  -1.327154  -0.257717  11.321863  -3.571406  -0.929446  11.321863  -3.571406  -0.929446  0.045304  15.011389  12.511617  143.245116  10.215813  172.435699  -30.189579  40.571572  89.186555  61.943321  -4.176594  27.807328  -0.85424  11.634632  0.664885  -130.559088  67.662641  170.160477  -30.726745  8.232078  -113.24835  78.219752  17.237344  31.632998  -33.604003  4.244758  5.704242  -25.233557  2.88017  4.526692  
0.0  89.887642  0.0  -3.862908  42.372212  -94.477061  -8.949662  -13.456145  -9.782557  -13.687435  3.493129  23.863089  1.285823  0.318191  2.220823  -33.001706  11.244664  4.767753  -16.179924  6.281099  8.025556  2.424735  0.475868  0.440384  4.063801  -1.330525  -0.275616  11.133073  -3.578721  -0.975117  11.133073  -3.578721  -0.975117  0.314849  15.014342  12.314361  143.845654  11.356289  173.177246  -29.054421  38.750868  89.594626  64.172735  -3.740334  27.869127  -0.78141  11.398937  0.994615  -131.457258  68.690778  169.853003  -30.672176  8.111929  -113.067678  77.986029  17.353807  31.058121  -33.078349  4.220162  5.902438  -24.840917  2.855518  4.670269  
0.0  89.887642  0.0  -4.032788  41.594405  -94.55844  -8.591651  -13.685256  -9.637971  -13.495318  3.38317  23.80206  1.321768  0.323065  2.24431  -32.958786  11.197583  4.262961  -15.638933  6.242947  8.682424  2.554986  0.496968  0.496322  4.040718  -1.360571  -0.282815  11.071119  -3.659771  -0.99858  11.071118  -3.659772  -0.99858  0.301102  15.237317  12.09396  144.195773  12.203097  173.825948  -28.198115  36.556669  90.335211  66.213966  -3.362903  28.046588  -0.988955  11.322112  1.253132  -132.193344  69.921076  169.526529  -30.623909  8.024562  -112.855273  77.844285  17.405576  30.478787  -32.682154  4.23955  5.959911  -24.544413  2.870649  4.711375  
0.0  89.887642  0.0  -4.135888  40.914883  -94.563005  -8.656813  -13.784185  -9.560919  -13.157549  3.193467  23.782127  1.435202  0.365776  2.319503  -33.103661  11.259225  3.681988  -14.91733  6.178918  9.386237  2.593928  0.445571  0.536748  3.980691  -1.366012  -0.294199  10.907662  -3.673767  -1.027244  10.907662  -3.673768  -1.027243  0.416429  15.290782  11.824905  144.359444  12.988043  174.530302  -27.373002  34.335871  91.069482  68.039905  -2.994932  28.158783  -0.960781  11.008593  1.587367  -133.635527  71.143136  168.65995  -30.511344  7.934413  -112.569863  77.725534  17.38355  29.753217  -32.09573  4.239668  6.144776  -24.106207  2.866418  4.845738  
0.0  89.887642  0.0  -4.285596  40.005543  -94.599434  -8.468471  -14.037834  -9.396152  -12.781531  3.073808  23.727558  1.501021  0.38997  2.347408  -33.136033  11.230785  3.078845  -14.163  6.062397  10.090593  2.747563  0.448674  0.595974  3.94604  -1.39455  -0.315986  10.814861  -3.748591  -1.089472  10.814861  -3.748591  -1.089472  0.328639  15.603196  11.709044  144.607004  13.940536  175.312677  -26.600282  32.116897  91.801952  69.703281  -2.612203  28.113268  -1.241565  10.803918  1.966795  -135.044701  72.480266  167.545784  -30.323859  7.780509  -112.253004  77.610092  17.308938  28.806359  -31.599962  4.311729  6.23381  -23.735573  2.920767  4.91242  
0.0  89.887642  0.0  -4.429428  39.073384  -94.618149  -8.279724  -14.290937  -9.210391  -12.337071  2.924542  23.70781  1.602381  0.410976  2.373533  -32.741721  11.180351  2.625211  -13.538318  5.942658  10.775806  2.626503  0.453091  0.621004  3.86815  -1.397332  -0.33474  10.602882  -3.754633  -1.13671  10.602881  -3.754633  -1.13671  0.433699  15.8152  11.499669  144.713067  14.919607  176.061898  -25.916094  29.940748  92.469435  71.207734  -2.24483  27.944515  -1.276956  10.400684  2.357655  -136.88145  73.881022  166.048518  -30.010085  7.522711  -111.928382  77.583925  17.152813  27.645502  -30.778918  4.309607  6.462619  -23.121834  2.91558  5.077704  
0.0  89.887642  0.0  -4.577072  38.037927  -94.674569  -8.078486  -14.573325  -8.967171  -11.910244  2.810025  23.620484  1.699804  0.437264  2.40142  -32.769191  11.111026  2.043613  -12.689776  5.905895  11.435372  2.762473  0.462143  0.670586  3.808156  -1.416364  -0.339547  10.439564  -3.806916  -1.149488  10.439564  -3.806916  -1.149488  0.355542  16.174602  11.300695  144.771896  15.977861  176.839098  -25.382401  27.871752  93.045467  72.624038  -1.957599  27.746796  -1.469352  10.151242  2.700329  -139.012206  75.496692  164.183316  -29.549899  7.191401  -111.613403  77.591936  16.984777  26.271862  -30.108496  4.339479  6.53549  -22.619948  2.941217  5.128506  
0.0  89.887642  0.0  -4.730948  36.945301  -94.765626  -7.631613  -14.883483  -8.612345  -11.641152  2.709023  23.431313  1.770516  0.460674  2.407653  -32.448078  10.961236  1.657847  -11.836865  5.896548  12.016796  2.708126  0.372787  0.680093  3.705847  -1.428363  -0.347445  10.160441  -3.840427  -1.167072  10.160441  -3.840427  -1.167072  0.298998  16.414123  10.972551  144.898752  16.904849  177.53056  -24.789285  25.942626  93.572023  73.965537  -1.813722  27.434509  -1.118586  9.670245  3.189716  -142.56576  77.154056  161.159943  -28.916474  6.75813  -111.303955  77.597058  16.794226  24.662035  -29.158191  4.358738  6.713203  -21.90902  2.956913  5.255262  
0.0  89.887642  0.0  -4.850288  35.874326  -94.833525  -7.342747  -15.127245  -8.30983  -11.267142  2.577901  23.301902  1.87388  0.485972  2.443958  -32.397527  10.85315  1.200549  -10.953428  5.828114  12.518778  2.873461  0.364091  0.724885  3.605279  -1.457473  -0.345731  9.886029  -3.922047  -1.161012  9.886029  -3.922047  -1.161012  0.210889  16.789458  10.830733  144.858367  17.957068  178.352026  -24.410858  24.08386  93.990626  75.128253  -1.700953  27.220598  -1.108046  9.458518  3.599829  -146.929125  79.020797  157.069801  -28.051482  6.156816  -110.983247  77.640106  16.579999  22.812367  -28.306472  4.423445  6.750887  -21.271165  3.012784  5.279585  
0.0  89.887642  0.0  -4.993548  34.695744  -94.905511  -6.649822  -15.466263  -7.944507  -11.148344  2.528862  23.039185  1.997053  0.498254  2.477429  -32.028788  10.678292  0.862931  -9.755953  5.698732  13.026005  2.692114  0.304337  0.744489  3.503709  -1.460965  -0.337443  9.607725  -3.934784  -1.132932  9.607726  -3.934784  -1.132931  -0.060902  17.069033  10.603301  144.871885  19.084725  179.12203  -24.095448  22.422161  94.333172  76.252332  -1.670202  26.926169  -0.901511  8.964081  3.986756  -153.825503  80.866072  150.542953  -26.961255  5.439165  -110.62307  77.724041  16.267093  20.774272  -27.347497  4.375475  6.843334  -20.552633  2.982712  5.339044  
0.0  89.887642  0.0  -5.102139  33.592287  -94.925501  -6.223629  -15.705288  -7.697818  -10.834809  2.403816  22.918298  2.098652  0.514555  2.50994  -31.866671  10.542347  0.467936  -8.978796  5.56524  13.406249  2.761707  0.298413  0.781702  3.422147  -1.472419  -0.326366  9.384224  -3.969172  -1.099523  9.384224  -3.969172  -1.099523  -0.406915  17.39861  10.325208  144.524379  20.119268  179.783101  -23.968075  20.808875  94.571774  77.288096  -1.681005  26.723025  -1.148098  8.722214  4.301305  -164.389509  82.740786  140.093388  -25.809898  4.684469  -110.220497  77.844242  15.889697  18.677958  -26.551976  4.3403  6.823435  -19.955802  2.965677  5.316122  
0.0  89.887642  0.0  -5.24956  32.375263  -94.974767  -5.449995  -16.036486  -7.403453  -10.662591  2.323328  22.748375  2.168291  0.523914  2.508817  -31.336255  10.307477  0.209095  -8.003217  5.427076  13.794826  2.503884  0.238683  0.763328  3.334428  -1.493059  -0.330316  9.145004  -4.026563  -1.107972  9.145004  -4.026563  -1.107972  -0.936469  17.734624  10.188257  144.347447  21.197121  -179.547125  -23.91956  19.325286  94.74999  78.198823  -1.643117  26.552013  -1.178839  8.44149  4.818369  173.854909  84.90836  116.261804  -24.101897  5.488359  -107.99604  77.975856  15.479555  16.595725  -25.653402  4.34291  6.880751  -19.282579  2.974873  5.352062  
